<svg xmlns="http://www.w3.org/2000/svg" viewBox="0 0 24 24">
  <path d="M21.25,0h-18.5C1.56,0,0,1.56,0,3.5v17C0,22.44,1.56,24,3.5,24h18.5c1.94,0,3.5-1.56,3.5-3.5v-17C24,1.56,22.44,0,20.5,0zM7.84,20.88h-4.3v-12.1h4.3v12.1zM5.79,7.46C4.79,7.46,4,6.67,4,5.67C4,4.67,4.79,3.88,5.79,3.88C6.8,3.88,7.59,4.67,7.59,5.67C7.59,6.67,6.8,7.46,5.79,7.46zM20.88,20.88h-3.93v-6.5c0-1.09-0.88-1.97-1.97-1.97s-1.97,0.88-1.97,1.97v6.5h-3.94v-12.1h3.94v1.93c0.52-0.96,1.55-1.57,2.69-1.57c1.92,0,3.48,1.56,3.48,3.48v7.27h0.01L20.88,20.88L20.88,20.88z" fill="#000000"/>
</svg>
